<svg xmlns="http://www.w3.org/2000/svg" viewBox="0 0 252.5 8.6"><path d="M0 0c5.1 0 5.1 2.8 10.1 2.8 5.1 0 5.1-2.8 10.1-2.8 5.1 0 5.1 2.8 10.1 2.8 5.1 0 5.1-2.8 10.1-2.8 5.1 0 5.1 2.8 10.1 2.8 5.1 0 5.1-2.8 10.1-2.8 5.1 0 5.1 2.8 10.1 2.8 5.1 0 5.1-2.8 10.1-2.8 5.1 0 5.1 2.8 10.1 2.8C96 2.8 96 0 101 0c5.1 0 5.1 2.8 10.1 2.8 5.1 0 5.1-2.8 10.1-2.8 5.1 0 5.1 2.8 10.1 2.8 5.1 0 5.1-2.8 10.1-2.8 5.1 0 5.1 2.8 10.1 2.8 5.1 0 5.1-2.8 10.1-2.8 5.1 0 5.1 2.8 10.1 2.8 5.1 0 5.1-2.8 10.1-2.8 5.1 0 5.1 2.8 10.1 2.8C197 2.8 197 0 202 0c5.1 0 5.1 2.8 10.1 2.8 5.1 0 5.1-2.8 10.1-2.8 5.1 0 5.1 2.8 10.1 2.8 5.1 0 5.1-2.8 10.1-2.8 5.1 0 5.1 2.8 10.1 2.8v5.8H0V0z" fill="#00f"/></svg>