<svg xmlns="http://www.w3.org/2000/svg" viewBox="0 0 513 8.6"><path d="M513 2.8c-5 0-5-2.8-10.1-2.8-5 0-5 2.8-10.1 2.8-5 0-5-2.8-10.1-2.8-5 0-5 2.8-10.1 2.8-5 0-5-2.8-10.1-2.8-5 0-5 2.8-10.1 2.8-5 0-5-2.8-10.1-2.8-5 0-5 2.8-10.1 2.8-5 0-5-2.8-10.1-2.8-5 0-5 2.8-10.1 2.8-5 0-5-2.8-10.1-2.8-5 0-5 2.8-10.1 2.8-5 0-5-2.8-10.1-2.8-5 0-5 2.8-10.1 2.8-5 0-5-2.8-10.1-2.8-5 0-5 2.8-10.1 2.8-5 0-5-2.8-10.1-2.8-5 0-5 2.8-10.1 2.8-5 0-5-2.8-10.1-2.8-5 0-5 2.8-10.1 2.8-5 0-5-2.8-10.1-2.8-5 0-5 2.8-10.1 2.8-5 0-5-2.8-10.1-2.8-5 0-5 2.8-10.1 2.8-5 0-5-2.8-10.1-2.8-5 0-5 2.8-10.1 2.8-5 0-5-2.8-10.1-2.8-5 0-5 2.8-10.1 2.8-5 0-5-2.8-10.1-2.8-5 0-5 2.8-10.1 2.8-5 0-5-2.8-10.1-2.8-5 0-5 2.8-10.1 2.8-5 0-5-2.8-10.1-2.8-5 0-5 2.8-10.1 2.8-5 0-5-2.8-10.1-2.8-5 0-5 2.8-10.1 2.8-5 0-5-2.8-10.1-2.8-5 0-5 2.8-10.1 2.8-5 0-5-2.8-10.1-2.8-5 0-5 2.8-10.1 2.8-5 0-5-2.8-10.1-2.8-5 0-5 2.8-10.1 2.8-5 0-5-2.8-10.1-2.8-5 0-5 2.8-10.1 2.8-5 0-5-2.8-10.1-2.8-5 0-5 2.8-10.1 2.8-5 0-5-2.8-10.1-2.8-5 0-5 2.8-10.1 2.8-5 0-5-2.8-10.1-2.8-5 0-5 2.8-10.1 2.8C5 2.8 5 0 0 0v8.6h513V2.8z" fill="#00f"/></svg>